<svg width="512" height="512" viewBox="0 0 512 512" fill="none" xmlns="http://www.w3.org/2000/svg">
  <!-- Background circle -->
  <rect width="512" height="512" rx="96" fill="#1a6b3c"/>
  
  <!-- Shield shape -->
  <path d="M256 72C256 72 96 136 96 224V328C96 392 160 448 256 480C352 448 416 392 416 328V224C416 136 256 72 256 72Z" fill="white" fill-opacity="0.15"/>
  <path d="M256 96C256 96 116 152 116 232V320C116 378 174 428 256 456C338 428 396 378 396 320V232C396 152 256 96 256 96Z" fill="white" fill-opacity="0.1"/>
  
  <!-- Kenya flag stripes -->
  <!-- Green top stripe -->
  <rect x="168" y="188" width="176" height="32" rx="6" fill="white" opacity="0.9"/>
  <!-- Red middle stripe -->
  <rect x="168" y="232" width="176" height="32" rx="6" fill="#C62828" opacity="0.9"/>
  <!-- Dark bottom stripe -->
  <rect x="168" y="276" width="176" height="32" rx="6" fill="white" opacity="0.6"/>
  
  <!-- Central hub circle -->
  <circle cx="256" cy="256" r="44" fill="white"/>
  <circle cx="256" cy="256" r="26" fill="#1a6b3c"/>
  
  <!-- Connection dots (Hub) -->
  <circle cx="256" cy="370" r="14" fill="white" opacity="0.8"/>
  <circle cx="200" cy="354" r="10" fill="white" opacity="0.6"/>
  <circle cx="312" cy="354" r="10" fill="white" opacity="0.6"/>
  
  <!-- H letter subtle -->
  <path d="M240 244V268M272 244V268M240 256H272" stroke="white" stroke-width="5" stroke-linecap="round"/>
</svg>
